<svg xmlns="http://www.w3.org/2000/svg" viewBox="0 0 866 422" role="img">
<defs>
<filter id="softShadow" x="-20%" y="-20%" width="140%" height="140%">
<feDropShadow dx="0" dy="6" stdDeviation="8" flood-color="#64748b" flood-opacity="0.16"/>
</filter>
</defs>
<rect x="16" y="16" width="834" height="390" rx="12" fill="#ffffff" stroke="#dbe4f0" stroke-width="1"/>
<text x="36" y="50" text-anchor="start" font-family="Segoe UI, Arial, sans-serif" font-size="22" font-weight="700" fill="#111827">5.1 to stereo downmix</text>
<text x="36" y="78" text-anchor="start" font-family="Segoe UI, Arial, sans-serif" font-size="14" font-weight="400" fill="#526176">A simplified fold-down from surround channels to left and right.</text>
<text x="516.0" y="104" text-anchor="middle" font-family="Segoe UI, Arial, sans-serif" font-size="13" font-weight="600" fill="#64748b">Input channels</text>
<text x="34" y="212.0" text-anchor="start" font-family="Segoe UI, Arial, sans-serif" font-size="13" font-weight="600" fill="#64748b">Output</text>
<rect x="220" y="118" width="92" height="34" rx="8" fill="#eef4ff" stroke="#c7d2e5" stroke-width="1"/>
<text x="266.0" y="140" text-anchor="middle" font-family="Segoe UI, Arial, sans-serif" font-size="13" font-weight="700" fill="#334155">FL</text>
<rect x="320" y="118" width="92" height="34" rx="8" fill="#eef4ff" stroke="#c7d2e5" stroke-width="1"/>
<text x="366.0" y="140" text-anchor="middle" font-family="Segoe UI, Arial, sans-serif" font-size="13" font-weight="700" fill="#334155">FR</text>
<rect x="420" y="118" width="92" height="34" rx="8" fill="#eef4ff" stroke="#c7d2e5" stroke-width="1"/>
<text x="466.0" y="140" text-anchor="middle" font-family="Segoe UI, Arial, sans-serif" font-size="13" font-weight="700" fill="#334155">C</text>
<rect x="520" y="118" width="92" height="34" rx="8" fill="#eef4ff" stroke="#c7d2e5" stroke-width="1"/>
<text x="566.0" y="140" text-anchor="middle" font-family="Segoe UI, Arial, sans-serif" font-size="13" font-weight="700" fill="#334155">LFE</text>
<rect x="620" y="118" width="92" height="34" rx="8" fill="#eef4ff" stroke="#c7d2e5" stroke-width="1"/>
<text x="666.0" y="140" text-anchor="middle" font-family="Segoe UI, Arial, sans-serif" font-size="13" font-weight="700" fill="#334155">SL</text>
<rect x="720" y="118" width="92" height="34" rx="8" fill="#eef4ff" stroke="#c7d2e5" stroke-width="1"/>
<text x="766.0" y="140" text-anchor="middle" font-family="Segoe UI, Arial, sans-serif" font-size="13" font-weight="700" fill="#334155">SR</text>
<rect x="118" y="160" width="94" height="62" rx="8" fill="#f8fafc" stroke="#c7d2e5" stroke-width="1"/>
<text x="165.0" y="198" text-anchor="middle" font-family="Segoe UI, Arial, sans-serif" font-size="13" font-weight="700" fill="#334155">Out L</text>
<rect x="220" y="160" width="92" height="62" rx="8" fill="#2b76b9" stroke="#b6c6dc" stroke-width="1"/>
<text x="266.0" y="199" text-anchor="middle" font-family="Segoe UI, Arial, sans-serif" font-size="18" font-weight="700" fill="#ffffff">1</text>
<rect x="320" y="160" width="92" height="62" rx="8" fill="#f5f7fb" stroke="#b6c6dc" stroke-width="1"/>
<text x="366.0" y="199" text-anchor="middle" font-family="Segoe UI, Arial, sans-serif" font-size="18" font-weight="700" fill="#102033">0</text>
<rect x="420" y="160" width="92" height="62" rx="8" fill="#629acd" stroke="#b6c6dc" stroke-width="1"/>
<text x="466.0" y="199" text-anchor="middle" font-family="Segoe UI, Arial, sans-serif" font-size="18" font-weight="700" fill="#102033">0.707</text>
<rect x="520" y="160" width="92" height="62" rx="8" fill="#f5f7fb" stroke="#b6c6dc" stroke-width="1"/>
<text x="566.0" y="199" text-anchor="middle" font-family="Segoe UI, Arial, sans-serif" font-size="18" font-weight="700" fill="#102033">0</text>
<rect x="620" y="160" width="92" height="62" rx="8" fill="#629acd" stroke="#b6c6dc" stroke-width="1"/>
<text x="666.0" y="199" text-anchor="middle" font-family="Segoe UI, Arial, sans-serif" font-size="18" font-weight="700" fill="#102033">0.707</text>
<rect x="720" y="160" width="92" height="62" rx="8" fill="#f5f7fb" stroke="#b6c6dc" stroke-width="1"/>
<text x="766.0" y="199" text-anchor="middle" font-family="Segoe UI, Arial, sans-serif" font-size="18" font-weight="700" fill="#102033">0</text>
<rect x="118" y="230" width="94" height="62" rx="8" fill="#f8fafc" stroke="#c7d2e5" stroke-width="1"/>
<text x="165.0" y="268" text-anchor="middle" font-family="Segoe UI, Arial, sans-serif" font-size="13" font-weight="700" fill="#334155">Out R</text>
<rect x="220" y="230" width="92" height="62" rx="8" fill="#f5f7fb" stroke="#b6c6dc" stroke-width="1"/>
<text x="266.0" y="269" text-anchor="middle" font-family="Segoe UI, Arial, sans-serif" font-size="18" font-weight="700" fill="#102033">0</text>
<rect x="320" y="230" width="92" height="62" rx="8" fill="#2b76b9" stroke="#b6c6dc" stroke-width="1"/>
<text x="366.0" y="269" text-anchor="middle" font-family="Segoe UI, Arial, sans-serif" font-size="18" font-weight="700" fill="#ffffff">1</text>
<rect x="420" y="230" width="92" height="62" rx="8" fill="#629acd" stroke="#b6c6dc" stroke-width="1"/>
<text x="466.0" y="269" text-anchor="middle" font-family="Segoe UI, Arial, sans-serif" font-size="18" font-weight="700" fill="#102033">0.707</text>
<rect x="520" y="230" width="92" height="62" rx="8" fill="#f5f7fb" stroke="#b6c6dc" stroke-width="1"/>
<text x="566.0" y="269" text-anchor="middle" font-family="Segoe UI, Arial, sans-serif" font-size="18" font-weight="700" fill="#102033">0</text>
<rect x="620" y="230" width="92" height="62" rx="8" fill="#f5f7fb" stroke="#b6c6dc" stroke-width="1"/>
<text x="666.0" y="269" text-anchor="middle" font-family="Segoe UI, Arial, sans-serif" font-size="18" font-weight="700" fill="#102033">0</text>
<rect x="720" y="230" width="92" height="62" rx="8" fill="#629acd" stroke="#b6c6dc" stroke-width="1"/>
<text x="766.0" y="269" text-anchor="middle" font-family="Segoe UI, Arial, sans-serif" font-size="18" font-weight="700" fill="#102033">0.707</text>
<text x="36" y="328" text-anchor="start" font-family="Segoe UI, Arial, sans-serif" font-size="13" font-weight="700" fill="#64748b">Result</text>
<text x="118" y="358" text-anchor="start" font-family="Segoe UI, Arial, sans-serif" font-size="15" font-weight="500" fill="#172033">Out L = FL + C * 0.707 + SL * 0.707</text>
<text x="118" y="386" text-anchor="start" font-family="Segoe UI, Arial, sans-serif" font-size="15" font-weight="500" fill="#172033">Out R = FR + C * 0.707 + SR * 0.707</text>
</svg>